<svg xmlns="http://www.w3.org/2000/svg" width="63" height="20" viewBox="0 0 63 20">
    <g fill="none" fill-rule="evenodd">
        <path fill="#00B9F5" d="M48.679 3.37h-2.797a.618.618 0 0 0-.618.617V19.13c0 .341.277.618.618.618h2.797a.617.617 0 0 0 .61-.534v-8.879l-.001-.567-.002-1.422c0-.037.002-.074.006-.11.045-.484.4-.883.964-.933h.516c.236.02.434.103.59.227.243.194.38.49.379.816l-.002 1.99h.002v8.43l.01.395c0 .341.278.618.62.618h2.795c.331 0 .6-.261.616-.588V10.32l-.002-1.989a1.018 1.018 0 0 1 .455-.871c.143-.093.315-.155.514-.172h.516c.604.053.97.51.969 1.043l-.002 1.99h.002v.562h.01v8.249c0 .34.278.617.62.617h2.795a.618.618 0 0 0 .619-.617V7.515c0-.792-.09-1.13-.212-1.475a4.18 4.18 0 0 0-3.945-2.79h-.038a4.172 4.172 0 0 0-3.014 1.281 4.173 4.173 0 0 0-3.014-1.281h-.038c-1.042 0-1.994.38-2.725 1.009v-.318a.616.616 0 0 0-.613-.571M35.542 6.837c0 .338.27.612.603.612h1.645v8.001l-.002 3.722c0 .335.267.606.596.606h2.695a.601.601 0 0 0 .596-.606V7.45h1.528a.608.608 0 0 0 .603-.612V4.072a.608.608 0 0 0-.603-.61h-1.559V.898a.556.556 0 0 0-.55-.566.525.525 0 0 0-.104.012c-1.73.48-1.382 2.91-4.538 3.116h-.307a.609.609 0 0 0-.603.611v2.765z"/>
        <path fill="#002E6E" d="M24.015 3.25a.615.615 0 0 0-.626.603v6.184c0 2.35 1.738 4.024 4.178 4.024H29.356s.042 0 .098.01c.33.037.588.304.588.632 0 .325-.253.59-.579.63l-.047.01-.804.014h-3.34a.615.615 0 0 0-.625.603v2.729c0 .333.28.603.626.603h4.632c2.44 0 4.178-1.674 4.178-4.024V3.853a.616.616 0 0 0-.627-.603h-2.832a.615.615 0 0 0-.625.603v1.465l-.013 1.786a.629.629 0 0 1 .014.128v1.841l-.001.424a.652.652 0 0 1-.663.63H28.15a.652.652 0 0 1-.664-.64V5.317l-.012-1.465a.616.616 0 0 0-.626-.603h-2.832zM3.944 7.139H5.72a.65.65 0 0 1 .655.644v2.112a.65.65 0 0 1-.655.644h-.263l-.016.003H3.944V7.139zM.056 15.156v3.53c0 .33.244.597.548.606H3.37c.332 0 .6-.27.6-.605l.011-4.153h2.596c2.174 0 3.688-1.516 3.688-3.712V6.968c0-2.196-1.514-3.718-3.688-3.718h-3.22l-.038.001-.015-.001H.644a.59.59 0 0 0-.588.592v2.676l.001.016-.001.038v8.584zM17.556 12.578v2.246a.508.508 0 0 1-.036.183.64.64 0 0 1-.61.396h-1.139c-.356 0-.644-.26-.644-.578v-.496l-.002-.018.001-1.32V12.575c.003-.318.29-.575.645-.575h1.14c.356 0 .645.259.645.578m-.284-4.084h-1.84c-2.45 0-4.196 1.587-4.196 3.814V15.5c0 2.215 1.5 3.79 3.932 3.79h5.104c.916 0 1.659-.675 1.659-1.508V7.37c0-2.526-1.336-4.12-4.526-4.12H13.5c-.345 0-.625.256-.625.57v1.066c0 .008.002.015.003.022 0 .008-.003.015-.003.022v1.462c0 .334.297.604.663.604h3.718a.637.637 0 0 1 .56.58v.354a.615.615 0 0 1-.544.564"/>
    </g>
</svg>
